<?xml version="1.0" standalone="no"?>
<!DOCTYPE svg PUBLIC "-//W3C//DTD SVG 20010904//EN"
 "http://www.w3.org/TR/2001/REC-SVG-20010904/DTD/svg10.dtd">
<svg version="1.0" xmlns="http://www.w3.org/2000/svg"
 width="330.000000pt" height="330.000000pt" viewBox="0 0 330.000000 330.000000"
 preserveAspectRatio="xMidYMid meet">
<metadata>
Created by potrace 1.14, written by Peter Selinger 2001-2017
</metadata>
<g transform="translate(0.000000,330.000000) scale(0.100000,-0.100000)"
fill="#000000" stroke="none">
<path d="M1984 2510 c-48 -11 -98 -46 -127 -87 -41 -59 -49 -92 -43 -158 l6
-61 -41 -39 c-72 -70 -96 -152 -63 -216 16 -33 9 -53 -24 -64 -25 -8 -68 -74
-85 -130 -29 -100 -2 -183 74 -223 24 -12 45 -26 47 -30 2 -8 -80 -52 -97 -52
-12 0 -71 86 -64 94 3 3 2 6 -4 6 -10 0 -95 157 -107 197 -5 14 1 40 15 70 19
40 23 63 21 143 -2 129 -20 237 -45 282 -24 44 -85 78 -139 78 -31 0 -37 5
-58 46 -52 100 -113 124 -235 92 -42 -11 -125 -86 -125 -113 0 -19 -1 -19 -56
10 -63 33 -99 32 -176 -10 -36 -19 -101 -48 -144 -66 -75 -30 -81 -31 -129
-18 -96 25 -178 9 -245 -47 -41 -35 -52 -65 -51 -145 0 -62 -1 -67 -34 -98
-40 -38 -55 -82 -48 -146 9 -91 67 -178 126 -190 46 -10 77 -32 77 -57 0 -11
-18 -40 -40 -64 -22 -24 -41 -54 -41 -66 -6 -84 21 -161 73 -215 28 -29 47
-39 101 -57 15 -5 11 -12 -27 -48 -55 -53 -64 -91 -41 -179 29 -116 86 -173
170 -171 62 1 253 59 296 90 21 15 43 37 50 49 l12 22 41 -21 c76 -39 208 -17
274 45 17 16 37 22 85 23 73 3 107 14 137 46 26 28 55 91 59 131 2 14 22 7 49
-19 44 -41 101 -66 141 -62 19 3 47 -1 61 -9 36 -19 108 -16 175 7 32 11 59
20 60 20 1 0 34 -24 74 -54 39 -30 95 -63 124 -75 99 -39 681 -192 733 -193
89 -1 144 44 174 140 25 82 25 138 0 182 -43 75 -43 75 -26 132 14 49 20 57
56 73 78 35 107 90 113 215 3 65 7 81 35 120 21 30 34 62 38 95 3 28 17 78 30
112 54 139 19 221 -116 264 -109 34 -120 40 -135 73 -21 42 -34 58 -73 85 -51
36 -98 43 -160 25 -53 -15 -54 -15 -72 8 -10 13 -42 37 -72 53 -46 26 -63 30
-135 30 -69 0 -86 -3 -112 -22 -16 -13 -35 -23 -41 -23 -5 0 -44 32 -86 70
-101 94 -145 115 -210 100z m72 -30 c14 -6 65 -46 112 -90 95 -89 112 -95 170
-55 73 50 201 25 276 -54 34 -35 60 -38 110 -14 30 14 42 15 75 4 54 -16 100
-56 121 -107 17 -39 23 -43 77 -58 77 -22 134 -44 154 -59 46 -35 52 -115 14
-195 -14 -31 -25 -72 -25 -97 0 -33 -8 -55 -37 -96 -35 -51 -37 -58 -38 -134
-1 -106 -28 -159 -98 -193 -52 -25 -71 -54 -83 -131 -6 -35 -2 -47 26 -88 30
-45 31 -53 27 -114 -7 -112 -74 -199 -153 -199 -44 0 -686 176 -749 206 -28
13 -75 44 -104 69 -51 44 -58 46 -100 42 -25 -3 -72 -13 -103 -22 -56 -18 -57
-18 -98 4 -30 15 -51 20 -75 15 -37 -7 -61 4 -122 53 -29 24 -50 33 -69 31
-23 -3 -29 -11 -44 -61 -30 -96 -71 -127 -170 -127 -53 0 -66 -4 -99 -31 -39
-31 -115 -59 -160 -59 -14 0 -44 11 -66 25 -22 13 -46 25 -54 25 -8 0 -36 -21
-61 -47 -54 -56 -70 -68 -90 -69 -8 -1 -63 -14 -123 -30 l-108 -29 -37 20
c-68 37 -123 192 -90 255 8 14 30 36 51 49 28 19 37 31 37 53 0 25 -4 28 -42
34 -60 9 -122 74 -144 150 -20 69 -13 96 37 147 31 32 39 48 39 77 0 44 -20
65 -71 74 -80 14 -133 91 -133 194 -1 61 0 64 43 104 l43 42 -6 63 c-5 47 -3
70 9 93 19 37 76 75 136 91 38 10 53 9 103 -6 57 -18 59 -18 124 3 37 12 107
42 155 67 101 52 130 55 181 20 57 -38 80 -34 107 23 19 37 35 52 73 71 96 48
170 28 212 -59 27 -54 48 -70 94 -70 44 0 100 -34 118 -73 19 -40 31 -128 33
-241 2 -86 -1 -108 -20 -143 -11 -23 -21 -55 -21 -70 0 -57 141 -305 192 -336
20 -13 88 7 124 36 40 31 32 63 -23 91 -80 40 -102 109 -68 207 18 51 37 75
83 108 37 26 37 31 11 117 -16 54 -1 91 64 158 l49 50 -7 67 c-8 77 9 121 67
175 49 47 97 61 144 44z"/>
<path d="M1930 2424 c-60 -51 -78 -131 -42 -187 22 -33 158 -157 173 -157 25
0 48 22 54 52 10 46 45 105 72 123 35 23 29 55 -19 101 -79 75 -111 94 -161
94 -34 0 -53 -6 -77 -26z m118 -13 c20 -11 59 -41 86 -66 l49 -45 -37 -37
c-24 -25 -43 -57 -55 -96 l-18 -59 -54 47 c-97 86 -110 101 -116 138 -7 43 24
99 65 122 35 19 36 18 80 -4z"/>
<path d="M1013 2401 c-80 -37 -81 -75 -9 -339 29 -108 59 -228 65 -267 7 -41
24 -89 40 -115 60 -99 61 -126 11 -190 -17 -22 -30 -54 -34 -85 -4 -28 -16
-87 -27 -133 -41 -179 -15 -232 116 -232 50 0 60 4 84 29 33 35 46 75 68 213
19 113 33 140 33 63 0 -26 6 -58 14 -73 24 -46 109 -121 143 -128 43 -8 49 9
27 75 -19 58 -13 106 16 144 28 35 25 50 -20 109 -22 29 -66 103 -96 163 -31
61 -61 113 -67 117 -7 4 -35 8 -63 8 -36 0 -61 7 -85 23 -56 37 -66 72 -72
249 -6 153 -5 158 18 191 33 50 38 71 25 117 -20 74 -100 100 -187 61z m118
-21 c22 -12 47 -58 44 -81 -2 -9 -15 -35 -30 -57 -31 -47 -30 -39 -18 -260 10
-160 10 -163 39 -193 39 -42 90 -62 151 -60 39 2 40 0 102 -121 27 -53 67
-121 89 -150 l40 -52 -20 -29 c-28 -38 -34 -110 -15 -165 l15 -43 -24 15 c-23
16 -103 95 -105 106 -2 6 -7 66 -8 97 -1 12 -10 27 -21 33 -30 16 -56 -17 -65
-81 -17 -128 -49 -233 -78 -257 -37 -31 -139 -4 -156 41 -5 12 -4 35 1 52 4
16 11 44 14 60 3 17 9 48 14 70 5 22 12 62 15 88 4 30 16 58 31 74 23 25 44
79 44 116 0 20 -32 87 -61 128 -11 15 -21 47 -24 70 -3 24 -8 52 -11 61 -5 16
-10 41 -19 89 -3 14 -11 44 -19 67 -9 23 -16 46 -16 50 0 4 -5 25 -11 47 -18
65 -21 79 -22 98 -1 9 -5 17 -9 17 -4 0 -8 13 -8 29 0 17 -4 32 -9 35 -5 3 -6
20 -2 38 12 58 98 96 152 68z"/>
<path d="M2358 2320 c-9 -6 -26 -26 -38 -45 -19 -31 -26 -35 -64 -35 -75 0
-116 -50 -116 -143 0 -58 23 -100 60 -112 28 -9 25 -29 -16 -131 -44 -110 -88
-190 -176 -320 -42 -63 -68 -112 -68 -128 0 -65 55 -116 125 -116 39 0 42 5
65 89 15 56 55 96 108 111 36 9 47 19 72 63 16 29 37 75 46 102 17 51 30 73
39 64 8 -8 -42 -148 -73 -204 -25 -47 -30 -50 -75 -57 -27 -3 -58 -14 -68 -24
-46 -42 -49 -150 -5 -179 31 -21 153 -55 194 -55 61 0 96 30 107 90 4 19 17
54 31 77 29 49 30 65 7 100 -37 56 -8 194 47 223 34 18 25 53 -24 87 -54 38
-80 84 -72 126 3 16 35 69 71 116 70 95 91 154 75 211 -12 42 -26 57 -71 81
-42 21 -151 26 -181 9z m134 -22 c73 -22 106 -90 78 -162 -5 -14 -36 -63 -69
-107 -64 -87 -77 -121 -67 -174 7 -36 54 -93 94 -114 l23 -12 -24 -23 c-45
-41 -61 -85 -62 -161 0 -52 5 -78 18 -98 17 -27 17 -29 -2 -55 -10 -15 -27
-53 -36 -85 -23 -80 -42 -87 -155 -58 -46 12 -90 27 -97 34 -20 20 -24 56 -9
92 17 39 28 47 74 52 19 2 43 8 53 14 25 13 61 85 95 189 31 92 26 115 -22
115 -25 0 -30 -6 -53 -65 -43 -113 -70 -151 -119 -166 -70 -20 -106 -64 -120
-147 -6 -35 -12 -42 -32 -45 -37 -4 -92 49 -86 82 4 21 96 168 117 186 12 11
109 210 133 274 36 96 35 114 -16 157 -35 31 -41 41 -40 73 3 73 39 116 98
116 38 0 46 4 71 36 26 35 71 63 102 64 7 0 31 -5 53 -12z"/>
<path d="M625 2269 c-54 -27 -117 -55 -138 -61 -46 -14 -84 -47 -93 -82 -18
-71 33 -154 101 -165 52 -8 54 -24 5 -46 -67 -30 -87 -95 -55 -172 23 -54 43
-72 87 -79 21 -4 38 -12 38 -19 0 -6 -16 -58 -36 -115 -39 -114 -40 -152 -1
-188 37 -35 96 -54 142 -48 l42 7 37 -138 c21 -76 44 -150 52 -164 14 -29 59
-49 105 -49 40 0 108 29 119 51 14 25 12 63 -2 78 -9 8 -13 46 -13 114 -1 129
-21 203 -74 260 -47 51 -139 191 -147 224 -9 35 2 67 42 114 35 42 36 45 32
112 -3 57 -8 73 -26 87 -12 10 -26 30 -32 44 -9 23 -5 31 30 67 35 37 40 47
40 89 0 53 -23 91 -70 115 -45 23 -78 17 -185 -36z m191 -13 c45 -45 46 -87 3
-127 -52 -48 -55 -105 -8 -155 11 -12 22 -42 25 -71 6 -46 4 -53 -30 -97 -41
-55 -51 -83 -43 -132 6 -38 101 -190 152 -244 39 -41 77 -156 69 -210 -9 -69
-6 -112 11 -151 21 -46 13 -62 -41 -79 -46 -16 -101 -5 -118 23 -8 12 -31 83
-51 157 -39 147 -58 176 -99 160 -26 -10 -80 0 -113 21 -45 27 -46 61 -7 177
44 133 43 155 -10 163 -47 8 -81 42 -90 92 -9 50 7 83 52 106 47 24 58 46 37
77 -11 17 -25 24 -46 24 -60 0 -108 94 -75 145 8 13 47 36 89 53 41 17 107 47
148 67 40 19 82 35 92 35 11 0 34 -15 53 -34z"/>
<path d="M1233 2240 c-50 -30 -54 -46 -48 -187 8 -184 13 -212 40 -239 20 -20
34 -24 83 -24 111 0 138 50 127 235 -8 136 -19 181 -52 211 -33 31 -104 33
-150 4z m124 -25 c35 -24 50 -135 44 -317 -2 -61 -51 -93 -117 -76 -50 13 -57
29 -60 146 -2 59 -6 118 -9 132 -3 14 -3 41 1 62 4 28 13 40 37 52 40 20 77
20 104 1z"/>
<path d="M2730 2239 c-16 -6 -45 -42 -80 -96 -30 -48 -73 -110 -96 -139 -58
-71 -67 -91 -59 -130 6 -35 36 -60 61 -50 8 3 23 25 33 49 21 49 63 87 95 87
11 0 102 -23 201 -51 231 -65 231 -65 255 -44 16 14 20 31 20 77 0 74 -15 90
-112 118 -166 48 -152 40 -159 87 -6 51 -30 80 -78 93 -42 12 -48 12 -81 -1z
m73 -28 c38 -15 57 -40 57 -75 0 -45 20 -59 130 -91 127 -35 140 -45 140 -98
0 -74 4 -73 -215 -12 -109 30 -215 55 -235 55 -47 0 -102 -45 -120 -99 -11
-33 -16 -39 -27 -29 -18 15 -9 55 21 88 37 42 101 131 140 197 32 54 46 66 78
72 4 0 18 -3 31 -8z"/>
<path d="M211 2199 c-68 -30 -80 -71 -56 -200 7 -35 6 -37 -28 -48 -47 -16
-67 -49 -67 -112 0 -101 61 -164 151 -157 l34 3 20 -79 c20 -78 20 -79 1 -90
-11 -6 -33 -23 -50 -38 -28 -24 -31 -32 -31 -80 1 -93 58 -158 139 -158 42 0
56 -21 59 -82 2 -38 0 -42 -30 -50 -72 -19 -93 -102 -52 -199 22 -51 57 -79
98 -79 33 0 229 58 261 77 51 30 72 101 51 169 -5 16 -19 62 -31 102 l-21 73
-73 33 c-55 25 -78 42 -95 70 l-23 36 26 100 c14 56 26 107 26 115 0 8 -20 34
-44 58 -33 32 -49 58 -61 101 -16 53 -16 61 -1 106 22 66 21 71 -16 131 -30
48 -33 58 -31 125 2 63 0 75 -16 84 -28 14 -95 9 -140 -11z m124 -80 c0 -54 6
-76 31 -126 31 -60 31 -62 18 -113 -7 -28 -11 -70 -7 -93 7 -55 47 -132 77
-152 13 -9 26 -22 29 -28 2 -7 -5 -50 -17 -97 -12 -47 -21 -95 -20 -107 1 -13
2 -29 3 -37 2 -30 57 -79 120 -110 l66 -32 28 -99 c33 -117 27 -163 -23 -194
-44 -26 -225 -74 -254 -67 -50 12 -89 105 -72 171 5 18 21 32 54 48 55 26 63
50 37 126 -17 53 -28 61 -80 61 -44 0 -91 40 -107 92 -10 34 -9 44 6 71 9 18
32 41 49 52 41 26 45 59 17 147 -23 72 -43 93 -83 83 -59 -15 -120 47 -120
121 0 49 18 75 63 94 39 16 43 34 29 107 -10 48 -10 68 -1 88 17 38 70 66 117
63 l40 -3 0 -66z"/>
<path d="M1833 2140 c-41 -25 -63 -59 -70 -108 -7 -54 10 -83 114 -184 69 -67
97 -88 126 -93 82 -16 157 46 157 129 0 57 -35 113 -99 157 -29 20 -72 55 -95
78 -48 47 -82 53 -133 21z m108 -46 c18 -19 57 -50 84 -69 54 -36 72 -55 94
-98 33 -64 -29 -150 -102 -142 -25 3 -53 26 -130 105 -86 87 -98 104 -95 129
6 52 59 108 104 110 5 1 26 -15 45 -35z"/>
<path d="M894 2095 c-15 -23 -15 -35 -4 -122 15 -112 29 -133 89 -133 29 0 41
5 45 18 7 20 -49 229 -66 249 -17 21 -46 15 -64 -12z m60 -67 c9 -35 19 -73
21 -85 3 -12 10 -34 15 -48 8 -22 7 -25 -14 -25 -32 0 -43 16 -51 80 -4 30 -9
66 -11 80 -4 29 4 60 15 60 5 0 16 -28 25 -62z"/>
<path d="M2653 1920 c-51 -21 -72 -136 -33 -178 26 -28 60 -36 121 -29 53 7
58 3 32 -26 -40 -43 -11 -135 51 -165 37 -19 89 1 178 68 79 60 108 102 108
156 -1 71 -13 78 -232 139 -172 47 -189 49 -225 35z m241 -72 c85 -23 157 -49
168 -60 45 -45 5 -116 -110 -191 -92 -60 -97 -61 -132 -29 -40 36 -44 72 -15
106 20 23 22 32 13 51 -13 29 -35 35 -72 20 -21 -9 -39 -10 -60 -3 -59 20 -72
67 -36 126 25 40 28 40 244 -20z"/>
<path d="M1712 1824 c-35 -24 -52 -68 -52 -132 0 -74 21 -104 91 -127 49 -16
50 -18 44 -48 -10 -49 -38 -80 -86 -98 -52 -19 -58 -37 -30 -83 29 -47 26 -85
-9 -134 -36 -51 -39 -78 -6 -86 21 -5 47 0 163 35 l43 13 50 -50 c28 -28 76
-63 108 -77 68 -32 705 -207 753 -207 44 0 94 31 115 71 27 52 29 138 5 177
-25 38 -47 40 -111 8 l-45 -22 -90 23 c-112 29 -139 40 -161 64 -13 15 -31 19
-77 19 -71 0 -171 23 -244 56 -28 13 -69 24 -90 24 -50 0 -122 45 -153 94 -31
51 -22 92 38 174 81 111 102 146 102 170 0 24 -5 27 -63 37 -28 4 -55 22 -98
61 -57 52 -61 54 -117 54 -36 0 -66 -6 -80 -16z m163 -55 c41 -44 104 -78 143
-79 22 0 22 -1 8 -28 -8 -16 -42 -65 -75 -110 -92 -124 -96 -180 -17 -263 43
-46 83 -66 141 -70 22 -1 53 -9 69 -17 27 -13 104 -38 150 -49 12 -2 52 -6 89
-8 53 -2 76 -9 105 -29 37 -25 205 -76 252 -76 14 0 44 9 67 19 59 27 78 12
78 -61 -1 -84 -44 -138 -110 -138 -41 0 -677 179 -733 206 -29 14 -76 47 -104
73 -27 25 -59 48 -71 51 -12 3 -50 -4 -84 -17 -35 -12 -74 -25 -89 -27 l-26
-5 25 33 c48 62 53 141 11 185 -12 13 -6 19 39 40 55 28 78 59 84 120 5 41
-16 67 -62 75 -45 9 -84 55 -80 96 11 124 108 165 190 79z"/>
<path d="M873 1790 c-73 -44 -72 -97 3 -208 31 -45 67 -91 81 -102 71 -56 188
20 169 110 -6 32 -92 166 -128 200 -28 26 -83 26 -125 0z m98 -18 c8 -2 89
-118 111 -158 21 -40 18 -61 -17 -96 -47 -47 -67 -39 -145 59 -30 37 -70 110
-70 126 0 31 51 74 85 72 17 -1 33 -3 36 -3z"/>
<path d="M2560 1652 c-33 -34 -47 -90 -34 -141 8 -30 17 -40 61 -61 29 -14 55
-29 59 -33 13 -12 -16 -34 -40 -30 -36 7 -86 -24 -102 -62 -22 -55 -18 -119
10 -152 20 -24 43 -34 118 -53 157 -39 198 -17 238 132 12 46 27 89 32 96 6 6
25 12 42 12 50 0 96 59 96 122 0 66 -32 73 -118 28 -87 -47 -129 -27 -184 87
-26 54 -35 64 -67 73 -57 16 -81 12 -111 -18z m112 -17 c9 -4 22 -22 28 -40
16 -50 75 -121 109 -133 47 -17 102 -3 163 40 25 18 40 -1 32 -39 -9 -43 -39
-73 -74 -73 -35 0 -67 -31 -75 -74 -25 -119 -67 -186 -118 -186 -41 0 -175 42
-196 61 -15 14 -20 31 -19 60 1 22 5 42 10 45 4 3 6 9 3 13 -8 14 30 41 63 46
54 6 70 15 76 41 9 36 -9 62 -54 74 -56 15 -80 65 -60 126 16 46 57 61 112 39z"/>
<path d="M1576 1348 c-18 -25 -21 -103 -6 -143 15 -41 39 -43 72 -7 22 25 28
42 28 76 0 77 -59 124 -94 74z m52 -30 c17 -17 14 -69 -4 -93 -13 -17 -16 -18
-24 -5 -5 8 -10 33 -10 56 0 53 13 67 38 42z"/>
</g>
</svg>
